<svg xmlns="http://www.w3.org/2000/svg" xmlns:xlink="http://www.w3.org/1999/xlink" width="256" zoomAndPan="magnify" viewBox="0 0 192 191.999996" height="256" preserveAspectRatio="xMidYMid meet" version="1.0"><defs><clipPath id="feec4e2f45"><path d="M 3.371094 3.339844 L 79.121094 3.339844 L 79.121094 79.089844 L 3.371094 79.089844 Z M 3.371094 3.339844 " clip-rule="nonzero"/></clipPath><clipPath id="f898366506"><path d="M 0 0 L 82.539062 0 L 82.539062 82.476562 L 0 82.476562 Z M 0 0 " clip-rule="nonzero"/></clipPath><clipPath id="cf7aa7c22e"><path d="M 36.910156 62.609375 L 45.628906 62.609375 L 45.628906 129.390625 L 36.910156 129.390625 Z M 36.910156 62.609375 " clip-rule="nonzero"/></clipPath><clipPath id="4547dd3b97"><path d="M 63.839844 36.90625 L 128 36.90625 L 128 45.570312 L 63.839844 45.570312 Z M 63.839844 36.90625 " clip-rule="nonzero"/></clipPath><clipPath id="e5c4c7f796"><path d="M 146.371094 62.609375 L 155.089844 62.609375 L 155.089844 129.390625 L 146.371094 129.390625 Z M 146.371094 62.609375 " clip-rule="nonzero"/></clipPath><clipPath id="f5b237d854"><path d="M 63.839844 144.460938 L 128 144.460938 L 128 153.125 L 63.839844 153.125 Z M 63.839844 144.460938 " clip-rule="nonzero"/></clipPath><clipPath id="591768b789"><path d="M 109.105469 109.523438 L 191.640625 109.523438 L 191.640625 192 L 109.105469 192 Z M 109.105469 109.523438 " clip-rule="nonzero"/></clipPath><clipPath id="4a62c4a9b4"><path d="M 112.464844 113.300781 L 188.214844 113.300781 L 188.214844 189.050781 L 112.464844 189.050781 Z M 112.464844 113.300781 " clip-rule="nonzero"/></clipPath><clipPath id="3a9d571ada"><path d="M 0.0078125 109.960938 L 82.546875 109.960938 L 82.546875 192 L 0.0078125 192 Z M 0.0078125 109.960938 " clip-rule="nonzero"/></clipPath><clipPath id="8c46f691c6"><path d="M 3.351562 113.28125 L 79.101562 113.28125 L 79.101562 189 L 3.351562 189 Z M 3.351562 113.28125 " clip-rule="nonzero"/></clipPath><clipPath id="71286e19aa"><path d="M 109.105469 0.0078125 L 191.640625 0.0078125 L 191.640625 82.488281 L 109.105469 82.488281 Z M 109.105469 0.0078125 " clip-rule="nonzero"/></clipPath><clipPath id="b57b76d7b2"><path d="M 112.816406 3.324219 L 188.566406 3.324219 L 188.566406 79 L 112.816406 79 Z M 112.816406 3.324219 " clip-rule="nonzero"/></clipPath><clipPath id="34725f13b7"><path d="M 3.371094 3.339844 L 79.121094 3.339844 L 79.121094 79.089844 L 3.371094 79.089844 Z M 3.371094 3.339844 " clip-rule="nonzero"/></clipPath></defs><g clip-path="url(#feec4e2f45)"><path fill="#38b6ff" d="M 79.121094 41.214844 C 79.121094 42.457031 79.0625 43.695312 78.9375 44.929688 C 78.816406 46.164062 78.636719 47.390625 78.394531 48.605469 C 78.152344 49.820312 77.851562 51.023438 77.492188 52.210938 C 77.128906 53.398438 76.714844 54.5625 76.238281 55.710938 C 75.761719 56.855469 75.234375 57.976562 74.648438 59.070312 C 74.0625 60.164062 73.425781 61.226562 72.738281 62.257812 C 72.050781 63.289062 71.3125 64.285156 70.523438 65.242188 C 69.738281 66.203125 68.90625 67.121094 68.027344 67.996094 C 67.152344 68.875 66.234375 69.707031 65.273438 70.492188 C 64.316406 71.28125 63.320312 72.019531 62.289062 72.707031 C 61.257812 73.398438 60.195312 74.035156 59.101562 74.617188 C 58.007812 75.203125 56.886719 75.734375 55.742188 76.207031 C 54.59375 76.683594 53.429688 77.101562 52.242188 77.460938 C 51.054688 77.820312 49.851562 78.121094 48.636719 78.363281 C 47.417969 78.605469 46.191406 78.789062 44.957031 78.910156 C 43.722656 79.03125 42.488281 79.089844 41.246094 79.089844 C 40.007812 79.089844 38.769531 79.03125 37.535156 78.910156 C 36.300781 78.789062 35.074219 78.605469 33.855469 78.363281 C 32.640625 78.121094 31.4375 77.820312 30.25 77.460938 C 29.066406 77.101562 27.898438 76.683594 26.753906 76.207031 C 25.605469 75.734375 24.484375 75.203125 23.390625 74.617188 C 22.296875 74.035156 21.234375 73.398438 20.203125 72.707031 C 19.171875 72.019531 18.175781 71.28125 17.21875 70.492188 C 16.261719 69.707031 15.34375 68.875 14.464844 67.996094 C 13.585938 67.121094 12.753906 66.203125 11.96875 65.242188 C 11.183594 64.285156 10.445312 63.289062 9.753906 62.257812 C 9.066406 61.226562 8.429688 60.164062 7.84375 59.070312 C 7.257812 57.976562 6.730469 56.855469 6.253906 55.710938 C 5.78125 54.5625 5.363281 53.398438 5.003906 52.210938 C 4.640625 51.023438 4.339844 49.820312 4.097656 48.605469 C 3.855469 47.390625 3.675781 46.164062 3.554688 44.929688 C 3.433594 43.695312 3.371094 42.457031 3.371094 41.214844 C 3.371094 39.976562 3.433594 38.738281 3.554688 37.503906 C 3.675781 36.269531 3.855469 35.042969 4.097656 33.828125 C 4.339844 32.609375 4.640625 31.410156 5.003906 30.222656 C 5.363281 29.035156 5.78125 27.867188 6.253906 26.722656 C 6.730469 25.574219 7.257812 24.457031 7.84375 23.363281 C 8.429688 22.269531 9.066406 21.207031 9.753906 20.175781 C 10.445312 19.144531 11.183594 18.148438 11.96875 17.1875 C 12.753906 16.230469 13.585938 15.3125 14.464844 14.433594 C 15.34375 13.558594 16.261719 12.726562 17.21875 11.9375 C 18.175781 11.152344 19.171875 10.414062 20.203125 9.722656 C 21.234375 9.035156 22.296875 8.398438 23.390625 7.8125 C 24.484375 7.230469 25.605469 6.699219 26.753906 6.222656 C 27.898438 5.75 29.066406 5.332031 30.25 4.972656 C 31.4375 4.613281 32.640625 4.3125 33.855469 4.070312 C 35.074219 3.828125 36.300781 3.644531 37.535156 3.523438 C 38.769531 3.402344 40.007812 3.339844 41.246094 3.339844 C 42.488281 3.339844 43.722656 3.402344 44.957031 3.523438 C 46.191406 3.644531 47.417969 3.828125 48.636719 4.070312 C 49.851562 4.3125 51.054688 4.613281 52.242188 4.972656 C 53.429688 5.332031 54.59375 5.75 55.742188 6.222656 C 56.886719 6.699219 58.007812 7.230469 59.101562 7.8125 C 60.195312 8.398438 61.257812 9.035156 62.289062 9.722656 C 63.320312 10.414062 64.316406 11.152344 65.273438 11.9375 C 66.234375 12.726562 67.152344 13.558594 68.027344 14.433594 C 68.90625 15.3125 69.738281 16.230469 70.523438 17.1875 C 71.3125 18.148438 72.050781 19.144531 72.738281 20.175781 C 73.425781 21.207031 74.0625 22.269531 74.648438 23.363281 C 75.234375 24.457031 75.761719 25.574219 76.238281 26.722656 C 76.714844 27.867188 77.128906 29.035156 77.492188 30.222656 C 77.851562 31.410156 78.152344 32.609375 78.394531 33.828125 C 78.636719 35.042969 78.816406 36.269531 78.9375 37.503906 C 79.0625 38.738281 79.121094 39.976562 79.121094 41.214844 Z M 79.121094 41.214844 " fill-opacity="1" fill-rule="nonzero"/></g><path fill="#ffffff" d="M 31.851562 67.335938 L 11.199219 46.679688 L 19.429688 38.453125 L 31.851562 50.875 L 63.058594 19.664062 L 71.292969 27.894531 Z M 31.851562 67.335938 " fill-opacity="1" fill-rule="nonzero"/><g clip-path="url(#f898366506)"><path fill="#ffffff" d="M 0 0 L 82.800781 0 L 82.800781 82.800781 L 0 82.800781 Z M 0 0 " fill-opacity="1" fill-rule="nonzero"/></g><g clip-path="url(#cf7aa7c22e)"><path fill="#ffffff" d="M 36.910156 62.609375 L 45.910156 62.609375 L 45.910156 129.210938 L 36.910156 129.210938 Z M 36.910156 62.609375 " fill-opacity="1" fill-rule="nonzero"/></g><g clip-path="url(#4547dd3b97)"><path fill="#ffffff" d="M 63.839844 36.90625 L 127.742188 36.90625 L 127.742188 45.90625 L 63.839844 45.90625 Z M 63.839844 36.90625 " fill-opacity="1" fill-rule="nonzero"/></g><g clip-path="url(#e5c4c7f796)"><path fill="#ffffff" d="M 146.371094 62.609375 L 155.371094 62.609375 L 155.371094 129.210938 L 146.371094 129.210938 Z M 146.371094 62.609375 " fill-opacity="1" fill-rule="nonzero"/></g><g clip-path="url(#f5b237d854)"><path fill="#ffffff" d="M 63.839844 144.460938 L 127.742188 144.460938 L 127.742188 153.460938 L 63.839844 153.460938 Z M 63.839844 144.460938 " fill-opacity="1" fill-rule="nonzero"/></g><g clip-path="url(#591768b789)"><path fill="#ffffff" d="M 109.105469 109.523438 L 191.902344 109.523438 L 191.902344 192.324219 L 109.105469 192.324219 Z M 109.105469 109.523438 " fill-opacity="1" fill-rule="nonzero"/></g><g clip-path="url(#4a62c4a9b4)"><path fill="#7ed957" d="M 188.214844 151.175781 C 188.214844 152.417969 188.15625 153.65625 188.035156 154.890625 C 187.914062 156.125 187.730469 157.347656 187.488281 158.566406 C 187.246094 159.78125 186.945312 160.984375 186.585938 162.171875 C 186.226562 163.359375 185.808594 164.523438 185.332031 165.671875 C 184.859375 166.816406 184.328125 167.9375 183.742188 169.03125 C 183.160156 170.125 182.523438 171.1875 181.832031 172.21875 C 181.144531 173.25 180.40625 174.246094 179.617188 175.203125 C 178.832031 176.164062 178 177.082031 177.121094 177.957031 C 176.246094 178.835938 175.328125 179.667969 174.367188 180.453125 C 173.410156 181.242188 172.414062 181.980469 171.382812 182.667969 C 170.351562 183.359375 169.289062 183.996094 168.195312 184.578125 C 167.101562 185.164062 165.980469 185.695312 164.835938 186.167969 C 163.6875 186.644531 162.523438 187.0625 161.335938 187.421875 C 160.148438 187.78125 158.945312 188.082031 157.730469 188.324219 C 156.511719 188.566406 155.289062 188.746094 154.054688 188.871094 C 152.820312 188.992188 151.582031 189.050781 150.339844 189.050781 C 149.101562 189.050781 147.863281 188.992188 146.628906 188.871094 C 145.394531 188.746094 144.167969 188.566406 142.953125 188.324219 C 141.734375 188.082031 140.535156 187.78125 139.347656 187.421875 C 138.160156 187.0625 136.992188 186.644531 135.847656 186.167969 C 134.699219 185.695312 133.582031 185.164062 132.488281 184.578125 C 131.394531 183.996094 130.332031 183.359375 129.300781 182.667969 C 128.265625 181.980469 127.273438 181.242188 126.3125 180.453125 C 125.355469 179.667969 124.4375 178.835938 123.558594 177.957031 C 122.683594 177.082031 121.851562 176.164062 121.0625 175.203125 C 120.277344 174.246094 119.539062 173.25 118.847656 172.21875 C 118.160156 171.1875 117.523438 170.125 116.9375 169.03125 C 116.355469 167.9375 115.824219 166.816406 115.347656 165.671875 C 114.875 164.523438 114.457031 163.359375 114.097656 162.171875 C 113.738281 160.984375 113.4375 159.78125 113.195312 158.566406 C 112.953125 157.347656 112.769531 156.125 112.648438 154.890625 C 112.527344 153.65625 112.464844 152.417969 112.464844 151.175781 C 112.464844 149.9375 112.527344 148.699219 112.648438 147.464844 C 112.769531 146.230469 112.953125 145.003906 113.195312 143.789062 C 113.4375 142.570312 113.738281 141.371094 114.097656 140.183594 C 114.457031 138.996094 114.875 137.828125 115.347656 136.683594 C 115.824219 135.535156 116.355469 134.417969 116.9375 133.324219 C 117.523438 132.230469 118.160156 131.167969 118.847656 130.132812 C 119.539062 129.101562 120.277344 128.109375 121.0625 127.148438 C 121.851562 126.191406 122.683594 125.273438 123.558594 124.394531 C 124.4375 123.519531 125.355469 122.6875 126.3125 121.898438 C 127.273438 121.113281 128.265625 120.375 129.300781 119.683594 C 130.332031 118.996094 131.394531 118.359375 132.488281 117.773438 C 133.582031 117.1875 134.699219 116.660156 135.847656 116.183594 C 136.992188 115.710938 138.160156 115.292969 139.347656 114.933594 C 140.535156 114.574219 141.734375 114.273438 142.953125 114.03125 C 144.167969 113.789062 145.394531 113.605469 146.628906 113.484375 C 147.863281 113.363281 149.101562 113.300781 150.339844 113.300781 C 151.582031 113.300781 152.820312 113.363281 154.054688 113.484375 C 155.289062 113.605469 156.511719 113.789062 157.730469 114.03125 C 158.945312 114.273438 160.148438 114.574219 161.335938 114.933594 C 162.523438 115.292969 163.6875 115.710938 164.835938 116.183594 C 165.980469 116.660156 167.101562 117.1875 168.195312 117.773438 C 169.289062 118.359375 170.351562 118.996094 171.382812 119.683594 C 172.414062 120.375 173.410156 121.113281 174.367188 121.898438 C 175.328125 122.6875 176.246094 123.519531 177.121094 124.394531 C 178 125.273438 178.832031 126.191406 179.617188 127.148438 C 180.40625 128.109375 181.144531 129.101562 181.832031 130.132812 C 182.523438 131.167969 183.160156 132.230469 183.742188 133.324219 C 184.328125 134.417969 184.859375 135.535156 185.332031 136.683594 C 185.808594 137.828125 186.226562 138.996094 186.585938 140.183594 C 186.945312 141.371094 187.246094 142.570312 187.488281 143.789062 C 187.730469 145.003906 187.914062 146.230469 188.035156 147.464844 C 188.15625 148.699219 188.214844 149.9375 188.214844 151.175781 Z M 188.214844 151.175781 " fill-opacity="1" fill-rule="nonzero"/></g><path fill="#ffffff" d="M 140.949219 177.296875 L 120.292969 156.640625 L 128.523438 148.410156 L 140.949219 160.835938 L 172.152344 129.625 L 180.386719 137.855469 Z M 140.949219 177.296875 " fill-opacity="1" fill-rule="nonzero"/><g clip-path="url(#3a9d571ada)"><path fill="#ffffff" d="M 0.0078125 109.960938 L 82.808594 109.960938 L 82.808594 192.761719 L 0.0078125 192.761719 Z M 0.0078125 109.960938 " fill-opacity="1" fill-rule="nonzero"/></g><path fill="#000000" d="M 49.167969 145.25 L 49.167969 141.707031 C 49.167969 141.183594 49.117188 140.667969 49.015625 140.15625 C 48.914062 139.644531 48.761719 139.144531 48.5625 138.664062 C 48.363281 138.183594 48.117188 137.722656 47.828125 137.289062 C 47.539062 136.855469 47.210938 136.453125 46.839844 136.085938 C 46.472656 135.71875 46.070312 135.386719 45.636719 135.097656 C 45.203125 134.808594 44.746094 134.5625 44.261719 134.363281 C 43.78125 134.164062 43.28125 134.011719 42.769531 133.910156 C 42.257812 133.808594 41.742188 133.757812 41.222656 133.757812 C 40.699219 133.757812 40.183594 133.808594 39.671875 133.910156 C 39.160156 134.011719 38.660156 134.164062 38.179688 134.363281 C 37.699219 134.5625 37.238281 134.808594 36.804688 135.097656 C 36.371094 135.386719 35.96875 135.71875 35.601562 136.085938 C 35.234375 136.453125 34.902344 136.855469 34.613281 137.289062 C 34.324219 137.722656 34.078125 138.183594 33.878906 138.664062 C 33.679688 139.144531 33.527344 139.644531 33.425781 140.15625 C 33.324219 140.667969 33.273438 141.183594 33.273438 141.707031 L 33.273438 145.25 Z M 49.167969 145.25 " fill-opacity="1" fill-rule="nonzero"/><path fill="#000000" d="M 42.808594 158.339844 L 42.808594 161.671875 C 42.808594 161.878906 42.769531 162.078125 42.691406 162.269531 C 42.613281 162.460938 42.5 162.628906 42.355469 162.777344 C 42.207031 162.925781 42.039062 163.039062 41.851562 163.117188 C 41.660156 163.199219 41.460938 163.242188 41.253906 163.242188 C 41.042969 163.246094 40.84375 163.207031 40.648438 163.128906 C 40.457031 163.050781 40.285156 162.9375 40.136719 162.789062 C 39.988281 162.640625 39.875 162.46875 39.796875 162.277344 C 39.71875 162.082031 39.679688 161.878906 39.683594 161.671875 L 39.683594 158.339844 C 39.347656 158.113281 39.085938 157.820312 38.894531 157.460938 C 38.703125 157.105469 38.605469 156.726562 38.597656 156.320312 C 38.605469 155.972656 38.675781 155.636719 38.8125 155.316406 C 38.949219 154.996094 39.140625 154.714844 39.390625 154.46875 C 39.640625 154.226562 39.925781 154.035156 40.246094 153.90625 C 40.570312 153.773438 40.90625 153.707031 41.253906 153.707031 C 41.597656 153.707031 41.929688 153.773438 42.25 153.90625 C 42.566406 154.042969 42.847656 154.230469 43.089844 154.476562 C 43.335938 154.71875 43.519531 155.003906 43.652344 155.324219 C 43.78125 155.640625 43.84375 155.976562 43.84375 156.320312 C 43.835938 156.71875 43.746094 157.097656 43.5625 157.453125 C 43.378906 157.808594 43.128906 158.105469 42.808594 158.339844 Z M 42.808594 158.339844 " fill-opacity="1" fill-rule="nonzero"/><g clip-path="url(#8c46f691c6)"><path fill="#000000" d="M 41.253906 113.359375 C 40.015625 113.359375 38.78125 113.417969 37.546875 113.539062 C 36.316406 113.660156 35.09375 113.839844 33.878906 114.082031 C 32.664062 114.324219 31.464844 114.625 30.28125 114.984375 C 29.097656 115.34375 27.933594 115.757812 26.789062 116.230469 C 25.644531 116.703125 24.527344 117.234375 23.433594 117.816406 C 22.34375 118.398438 21.28125 119.035156 20.253906 119.722656 C 19.222656 120.410156 18.230469 121.144531 17.273438 121.929688 C 16.316406 122.714844 15.398438 123.546875 14.523438 124.421875 C 13.648438 125.296875 12.816406 126.210938 12.03125 127.167969 C 11.246094 128.125 10.507812 129.117188 9.820312 130.148438 C 9.132812 131.175781 8.496094 132.238281 7.914062 133.328125 C 7.328125 134.421875 6.800781 135.539062 6.324219 136.683594 C 5.851562 137.824219 5.433594 138.988281 5.074219 140.175781 C 4.714844 141.359375 4.414062 142.558594 4.171875 143.773438 C 3.929688 144.984375 3.75 146.210938 3.628906 147.441406 C 3.503906 148.671875 3.445312 149.90625 3.445312 151.144531 C 3.445312 152.382812 3.503906 153.617188 3.625 154.851562 C 3.746094 156.082031 3.925781 157.304688 4.167969 158.519531 C 4.410156 159.734375 4.710938 160.933594 5.066406 162.117188 C 5.425781 163.304688 5.84375 164.46875 6.316406 165.613281 C 6.789062 166.753906 7.316406 167.875 7.902344 168.964844 C 8.484375 170.058594 9.121094 171.117188 9.808594 172.148438 C 10.496094 173.175781 11.230469 174.171875 12.015625 175.128906 C 12.800781 176.085938 13.632812 177 14.507812 177.878906 C 15.382812 178.753906 16.296875 179.582031 17.253906 180.371094 C 18.210938 181.15625 19.203125 181.890625 20.230469 182.578125 C 21.261719 183.269531 22.320312 183.902344 23.414062 184.488281 C 24.503906 185.070312 25.621094 185.601562 26.765625 186.074219 C 27.910156 186.550781 29.074219 186.964844 30.257812 187.328125 C 31.441406 187.6875 32.640625 187.988281 33.855469 188.230469 C 35.070312 188.472656 36.292969 188.652344 37.523438 188.773438 C 38.757812 188.894531 39.992188 188.957031 41.230469 188.957031 C 42.46875 188.957031 43.703125 188.898438 44.933594 188.777344 C 46.167969 188.65625 47.390625 188.476562 48.605469 188.234375 C 49.816406 187.992188 51.019531 187.691406 52.203125 187.335938 C 53.386719 186.976562 54.550781 186.558594 55.695312 186.085938 C 56.839844 185.613281 57.957031 185.085938 59.050781 184.5 C 60.140625 183.917969 61.203125 183.28125 62.230469 182.597656 C 63.261719 181.910156 64.253906 181.171875 65.210938 180.386719 C 66.167969 179.601562 67.085938 178.773438 67.960938 177.898438 C 68.835938 177.023438 69.667969 176.105469 70.453125 175.148438 C 71.238281 174.191406 71.976562 173.199219 72.664062 172.171875 C 73.351562 171.140625 73.988281 170.082031 74.574219 168.992188 C 75.15625 167.898438 75.6875 166.78125 76.160156 165.636719 C 76.632812 164.496094 77.050781 163.332031 77.410156 162.144531 C 77.769531 160.960938 78.070312 159.761719 78.3125 158.546875 C 78.554688 157.335938 78.738281 156.109375 78.859375 154.878906 C 78.980469 153.648438 79.042969 152.414062 79.042969 151.175781 C 79.042969 149.9375 78.980469 148.703125 78.855469 147.472656 C 78.734375 146.238281 78.550781 145.015625 78.308594 143.804688 C 78.066406 142.589844 77.765625 141.390625 77.402344 140.207031 C 77.042969 139.023438 76.625 137.859375 76.152344 136.71875 C 75.675781 135.574219 75.148438 134.457031 74.566406 133.367188 C 73.980469 132.277344 73.34375 131.214844 72.65625 130.1875 C 71.96875 129.15625 71.234375 128.164062 70.449219 127.207031 C 69.664062 126.25 68.835938 125.335938 67.960938 124.460938 C 67.085938 123.585938 66.167969 122.753906 65.214844 121.96875 C 64.257812 121.183594 63.265625 120.445312 62.238281 119.757812 C 61.207031 119.070312 60.148438 118.433594 59.058594 117.847656 C 57.96875 117.265625 56.851562 116.734375 55.707031 116.261719 C 54.566406 115.785156 53.402344 115.367188 52.21875 115.003906 C 51.035156 114.644531 49.835938 114.34375 48.625 114.097656 C 47.410156 113.855469 46.1875 113.671875 44.957031 113.546875 C 43.726562 113.425781 42.492188 113.359375 41.253906 113.359375 Z M 55.761719 165.851562 C 55.757812 166.238281 55.722656 166.617188 55.644531 166.996094 C 55.570312 167.375 55.457031 167.742188 55.308594 168.097656 C 55.160156 168.453125 54.980469 168.792969 54.765625 169.113281 C 54.550781 169.433594 54.308594 169.730469 54.035156 170 C 53.761719 170.273438 53.464844 170.519531 53.144531 170.734375 C 52.824219 170.945312 52.484375 171.128906 52.128906 171.277344 C 51.773438 171.425781 51.40625 171.535156 51.027344 171.613281 C 50.652344 171.6875 50.269531 171.726562 49.882812 171.726562 L 32.574219 171.726562 C 32.1875 171.726562 31.808594 171.691406 31.429688 171.613281 C 31.050781 171.539062 30.683594 171.429688 30.324219 171.28125 C 29.96875 171.132812 29.628906 170.953125 29.308594 170.738281 C 28.988281 170.523438 28.691406 170.28125 28.417969 170.007812 C 28.144531 169.734375 27.902344 169.4375 27.6875 169.117188 C 27.472656 168.796875 27.292969 168.457031 27.144531 168.101562 C 26.996094 167.742188 26.886719 167.375 26.8125 166.996094 C 26.734375 166.617188 26.699219 166.238281 26.699219 165.851562 L 26.699219 151.128906 C 26.699219 150.566406 26.78125 150.015625 26.9375 149.480469 C 27.097656 148.941406 27.328125 148.433594 27.632812 147.960938 C 27.9375 147.492188 28.300781 147.070312 28.722656 146.703125 C 29.148438 146.335938 29.617188 146.035156 30.125 145.800781 L 30.125 141.707031 C 30.089844 140.953125 30.128906 140.207031 30.246094 139.464844 C 30.359375 138.722656 30.546875 138 30.808594 137.292969 C 31.074219 136.589844 31.402344 135.917969 31.800781 135.28125 C 32.199219 134.644531 32.65625 134.054688 33.175781 133.511719 C 33.695312 132.964844 34.261719 132.480469 34.878906 132.050781 C 35.496094 131.621094 36.152344 131.257812 36.84375 130.964844 C 37.53125 130.667969 38.246094 130.445312 38.984375 130.292969 C 39.71875 130.140625 40.460938 130.066406 41.214844 130.066406 C 41.964844 130.066406 42.710938 130.140625 43.445312 130.292969 C 44.183594 130.445312 44.894531 130.667969 45.585938 130.964844 C 46.277344 131.257812 46.933594 131.621094 47.550781 132.050781 C 48.167969 132.480469 48.734375 132.964844 49.253906 133.511719 C 49.769531 134.054688 50.230469 134.644531 50.628906 135.28125 C 51.027344 135.917969 51.355469 136.589844 51.617188 137.292969 C 51.878906 138 52.070312 138.722656 52.183594 139.464844 C 52.300781 140.207031 52.339844 140.953125 52.300781 141.707031 L 52.300781 145.792969 C 52.816406 146.027344 53.285156 146.324219 53.710938 146.695312 C 54.140625 147.0625 54.503906 147.480469 54.8125 147.953125 C 55.117188 148.425781 55.351562 148.933594 55.511719 149.472656 C 55.671875 150.015625 55.753906 150.566406 55.753906 151.128906 Z M 55.761719 165.851562 " fill-opacity="1" fill-rule="nonzero"/></g><g clip-path="url(#71286e19aa)"><path fill="#ffffff" d="M 109.105469 0.0078125 L 191.902344 0.0078125 L 191.902344 82.808594 L 109.105469 82.808594 Z M 109.105469 0.0078125 " fill-opacity="1" fill-rule="nonzero"/></g><path fill="#000000" d="M 158.628906 35.289062 L 158.628906 31.746094 C 158.628906 31.222656 158.578125 30.707031 158.476562 30.195312 C 158.375 29.683594 158.226562 29.1875 158.027344 28.703125 C 157.824219 28.222656 157.582031 27.761719 157.292969 27.328125 C 157 26.894531 156.671875 26.496094 156.304688 26.125 C 155.933594 25.757812 155.53125 25.425781 155.097656 25.136719 C 154.664062 24.847656 154.207031 24.601562 153.722656 24.402344 C 153.242188 24.203125 152.746094 24.050781 152.234375 23.949219 C 151.722656 23.847656 151.203125 23.796875 150.683594 23.796875 C 150.160156 23.796875 149.644531 23.847656 149.132812 23.949219 C 148.621094 24.050781 148.125 24.203125 147.640625 24.402344 C 147.160156 24.601562 146.703125 24.847656 146.269531 25.136719 C 145.835938 25.425781 145.433594 25.757812 145.0625 26.125 C 144.695312 26.496094 144.367188 26.894531 144.074219 27.328125 C 143.785156 27.761719 143.539062 28.222656 143.339844 28.703125 C 143.140625 29.1875 142.992188 29.683594 142.890625 30.195312 C 142.785156 30.707031 142.734375 31.222656 142.734375 31.746094 L 142.734375 35.289062 Z M 158.628906 35.289062 " fill-opacity="1" fill-rule="nonzero"/><path fill="#000000" d="M 152.269531 48.378906 L 152.269531 51.710938 C 152.269531 51.917969 152.230469 52.117188 152.152344 52.308594 C 152.074219 52.5 151.960938 52.667969 151.816406 52.816406 C 151.671875 52.964844 151.503906 53.078125 151.3125 53.15625 C 151.121094 53.238281 150.921875 53.28125 150.714844 53.28125 C 150.507812 53.285156 150.304688 53.246094 150.109375 53.167969 C 149.917969 53.089844 149.746094 52.976562 149.597656 52.828125 C 149.449219 52.679688 149.335938 52.507812 149.257812 52.316406 C 149.179688 52.121094 149.140625 51.921875 149.144531 51.710938 L 149.144531 48.378906 C 148.8125 48.152344 148.546875 47.859375 148.355469 47.503906 C 148.164062 47.144531 148.066406 46.765625 148.0625 46.359375 C 148.066406 46.011719 148.136719 45.675781 148.273438 45.355469 C 148.410156 45.035156 148.605469 44.753906 148.851562 44.507812 C 149.101562 44.265625 149.386719 44.078125 149.710938 43.945312 C 150.03125 43.8125 150.367188 43.746094 150.714844 43.746094 C 151.0625 43.746094 151.394531 43.816406 151.710938 43.949219 C 152.03125 44.082031 152.3125 44.269531 152.554688 44.515625 C 152.796875 44.761719 152.984375 45.042969 153.113281 45.363281 C 153.242188 45.683594 153.308594 46.015625 153.304688 46.359375 C 153.300781 46.757812 153.207031 47.136719 153.023438 47.492188 C 152.84375 47.847656 152.589844 48.144531 152.269531 48.378906 Z M 152.269531 48.378906 " fill-opacity="1" fill-rule="nonzero"/><g clip-path="url(#b57b76d7b2)"><path fill="#000000" d="M 150.714844 3.398438 C 149.476562 3.398438 148.242188 3.457031 147.011719 3.578125 C 145.777344 3.699219 144.554688 3.878906 143.339844 4.121094 C 142.128906 4.363281 140.929688 4.664062 139.742188 5.023438 C 138.558594 5.382812 137.394531 5.796875 136.25 6.269531 C 135.105469 6.746094 133.988281 7.273438 132.898438 7.855469 C 131.804688 8.4375 130.742188 9.074219 129.714844 9.761719 C 128.683594 10.449219 127.691406 11.1875 126.734375 11.972656 C 125.777344 12.757812 124.859375 13.585938 123.984375 14.460938 C 123.109375 15.335938 122.277344 16.253906 121.492188 17.207031 C 120.707031 18.164062 119.972656 19.160156 119.28125 20.1875 C 118.59375 21.214844 117.957031 22.277344 117.375 23.367188 C 116.789062 24.460938 116.261719 25.578125 115.789062 26.722656 C 115.3125 27.863281 114.898438 29.027344 114.539062 30.214844 C 114.175781 31.398438 113.875 32.597656 113.636719 33.8125 C 113.394531 35.027344 113.210938 36.25 113.089844 37.480469 C 112.96875 38.710938 112.90625 39.949219 112.90625 41.183594 C 112.90625 42.421875 112.964844 43.660156 113.085938 44.890625 C 113.207031 46.121094 113.390625 47.34375 113.628906 48.558594 C 113.871094 49.773438 114.171875 50.972656 114.53125 52.160156 C 114.890625 53.34375 115.304688 54.507812 115.777344 55.652344 C 116.253906 56.796875 116.78125 57.914062 117.363281 59.003906 C 117.945312 60.097656 118.582031 61.15625 119.269531 62.1875 C 119.957031 63.21875 120.691406 64.210938 121.476562 65.167969 C 122.261719 66.125 123.09375 67.042969 123.96875 67.917969 C 124.84375 68.792969 125.757812 69.625 126.714844 70.410156 C 127.671875 71.195312 128.664062 71.929688 129.695312 72.621094 C 130.722656 73.308594 131.785156 73.945312 132.875 74.527344 C 133.96875 75.113281 135.085938 75.640625 136.226562 76.113281 C 137.371094 76.589844 138.535156 77.007812 139.71875 77.367188 C 140.90625 77.726562 142.105469 78.027344 143.316406 78.269531 C 144.53125 78.511719 145.753906 78.691406 146.988281 78.8125 C 148.21875 78.9375 149.453125 78.996094 150.691406 78.996094 C 151.929688 78.996094 153.164062 78.9375 154.398438 78.816406 C 155.628906 78.695312 156.851562 78.515625 158.066406 78.273438 C 159.28125 78.03125 160.480469 77.734375 161.664062 77.375 C 162.851562 77.015625 164.015625 76.597656 165.15625 76.125 C 166.300781 75.652344 167.417969 75.125 168.511719 74.539062 C 169.605469 73.957031 170.664062 73.324219 171.695312 72.636719 C 172.722656 71.949219 173.71875 71.210938 174.675781 70.425781 C 175.632812 69.640625 176.546875 68.8125 177.425781 67.9375 C 178.300781 67.0625 179.128906 66.144531 179.917969 65.1875 C 180.703125 64.234375 181.4375 63.238281 182.125 62.210938 C 182.816406 61.183594 183.453125 60.121094 184.035156 59.03125 C 184.621094 57.9375 185.148438 56.820312 185.621094 55.675781 C 186.097656 54.535156 186.515625 53.371094 186.875 52.183594 C 187.234375 51 187.535156 49.800781 187.777344 48.585938 C 188.019531 47.375 188.199219 46.152344 188.324219 44.917969 C 188.445312 43.6875 188.503906 42.453125 188.507812 41.214844 C 188.503906 39.976562 188.441406 38.742188 188.320312 37.511719 C 188.195312 36.277344 188.011719 35.058594 187.769531 33.84375 C 187.527344 32.628906 187.226562 31.429688 186.867188 30.246094 C 186.503906 29.0625 186.089844 27.898438 185.613281 26.757812 C 185.140625 25.613281 184.609375 24.496094 184.027344 23.40625 C 183.445312 22.316406 182.808594 21.253906 182.121094 20.226562 C 181.433594 19.199219 180.695312 18.203125 179.910156 17.246094 C 179.125 16.292969 178.296875 15.375 177.421875 14.5 C 176.546875 13.625 175.632812 12.792969 174.675781 12.007812 C 173.71875 11.222656 172.726562 10.484375 171.699219 9.796875 C 170.671875 9.109375 169.609375 8.472656 168.519531 7.886719 C 167.429688 7.304688 166.3125 6.773438 165.171875 6.300781 C 164.027344 5.824219 162.863281 5.40625 161.679688 5.046875 C 160.496094 4.683594 159.300781 4.382812 158.085938 4.136719 C 156.871094 3.894531 155.648438 3.710938 154.417969 3.585938 C 153.1875 3.464844 151.953125 3.398438 150.714844 3.398438 Z M 165.222656 55.890625 C 165.222656 56.277344 165.183594 56.65625 165.105469 57.035156 C 165.03125 57.414062 164.917969 57.78125 164.769531 58.136719 C 164.621094 58.492188 164.441406 58.832031 164.226562 59.152344 C 164.011719 59.472656 163.769531 59.769531 163.496094 60.042969 C 163.222656 60.3125 162.925781 60.558594 162.605469 60.773438 C 162.285156 60.988281 161.949219 61.167969 161.59375 61.316406 C 161.234375 61.464844 160.867188 61.574219 160.492188 61.652344 C 160.113281 61.726562 159.730469 61.765625 159.34375 61.765625 L 142.039062 61.765625 C 141.652344 61.765625 141.269531 61.730469 140.890625 61.65625 C 140.511719 61.578125 140.144531 61.46875 139.789062 61.320312 C 139.433594 61.171875 139.09375 60.992188 138.773438 60.777344 C 138.453125 60.5625 138.15625 60.320312 137.882812 60.046875 C 137.609375 59.773438 137.363281 59.476562 137.152344 59.15625 C 136.9375 58.835938 136.753906 58.496094 136.609375 58.140625 C 136.460938 57.78125 136.347656 57.414062 136.273438 57.035156 C 136.199219 56.660156 136.160156 56.277344 136.160156 55.890625 L 136.160156 41.167969 C 136.160156 40.605469 136.242188 40.054688 136.402344 39.519531 C 136.558594 38.980469 136.789062 38.472656 137.09375 38.003906 C 137.398438 37.53125 137.761719 37.109375 138.1875 36.742188 C 138.609375 36.375 139.078125 36.074219 139.589844 35.839844 L 139.589844 31.746094 C 139.550781 30.996094 139.589844 30.246094 139.707031 29.503906 C 139.820312 28.761719 140.011719 28.039062 140.273438 27.335938 C 140.535156 26.628906 140.863281 25.960938 141.261719 25.320312 C 141.660156 24.683594 142.121094 24.09375 142.640625 23.550781 C 143.15625 23.003906 143.726562 22.519531 144.34375 22.089844 C 144.960938 21.660156 145.613281 21.296875 146.304688 21.003906 C 146.996094 20.707031 147.707031 20.484375 148.445312 20.332031 C 149.179688 20.179688 149.925781 20.105469 150.675781 20.105469 C 151.429688 20.105469 152.171875 20.179688 152.910156 20.332031 C 153.644531 20.484375 154.359375 20.707031 155.050781 21.003906 C 155.738281 21.296875 156.394531 21.660156 157.011719 22.089844 C 157.628906 22.519531 158.195312 23.003906 158.714844 23.550781 C 159.234375 24.09375 159.691406 24.683594 160.089844 25.320312 C 160.488281 25.960938 160.820312 26.628906 161.082031 27.335938 C 161.34375 28.039062 161.53125 28.761719 161.648438 29.503906 C 161.761719 30.246094 161.800781 30.996094 161.765625 31.746094 L 161.765625 35.832031 C 162.277344 36.066406 162.746094 36.367188 163.175781 36.734375 C 163.601562 37.101562 163.96875 37.519531 164.273438 37.992188 C 164.578125 38.464844 164.8125 38.972656 164.972656 39.511719 C 165.132812 40.054688 165.214844 40.605469 165.214844 41.167969 Z M 165.222656 55.890625 " fill-opacity="1" fill-rule="nonzero"/></g><g clip-path="url(#34725f13b7)"><path fill="#7ed957" d="M 79.121094 41.214844 C 79.121094 42.457031 79.0625 43.695312 78.9375 44.929688 C 78.816406 46.164062 78.636719 47.390625 78.394531 48.605469 C 78.152344 49.820312 77.851562 51.023438 77.492188 52.210938 C 77.128906 53.398438 76.714844 54.5625 76.238281 55.710938 C 75.761719 56.855469 75.234375 57.976562 74.648438 59.070312 C 74.0625 60.164062 73.425781 61.226562 72.738281 62.257812 C 72.050781 63.289062 71.3125 64.285156 70.523438 65.242188 C 69.738281 66.203125 68.90625 67.121094 68.027344 67.996094 C 67.152344 68.875 66.234375 69.707031 65.273438 70.492188 C 64.316406 71.28125 63.320312 72.019531 62.289062 72.707031 C 61.257812 73.398438 60.195312 74.035156 59.101562 74.617188 C 58.007812 75.203125 56.886719 75.734375 55.742188 76.207031 C 54.59375 76.683594 53.429688 77.101562 52.242188 77.460938 C 51.054688 77.820312 49.851562 78.121094 48.636719 78.363281 C 47.417969 78.605469 46.191406 78.789062 44.957031 78.910156 C 43.722656 79.03125 42.488281 79.089844 41.246094 79.089844 C 40.007812 79.089844 38.769531 79.03125 37.535156 78.910156 C 36.300781 78.789062 35.074219 78.605469 33.855469 78.363281 C 32.640625 78.121094 31.4375 77.820312 30.25 77.460938 C 29.066406 77.101562 27.898438 76.683594 26.753906 76.207031 C 25.605469 75.734375 24.484375 75.203125 23.390625 74.617188 C 22.296875 74.035156 21.234375 73.398438 20.203125 72.707031 C 19.171875 72.019531 18.175781 71.28125 17.21875 70.492188 C 16.261719 69.707031 15.34375 68.875 14.464844 67.996094 C 13.585938 67.121094 12.753906 66.203125 11.96875 65.242188 C 11.183594 64.285156 10.445312 63.289062 9.753906 62.257812 C 9.066406 61.226562 8.429688 60.164062 7.84375 59.070312 C 7.257812 57.976562 6.730469 56.855469 6.253906 55.710938 C 5.78125 54.5625 5.363281 53.398438 5.003906 52.210938 C 4.640625 51.023438 4.339844 49.820312 4.097656 48.605469 C 3.855469 47.390625 3.675781 46.164062 3.554688 44.929688 C 3.433594 43.695312 3.371094 42.457031 3.371094 41.214844 C 3.371094 39.976562 3.433594 38.738281 3.554688 37.503906 C 3.675781 36.269531 3.855469 35.042969 4.097656 33.828125 C 4.339844 32.609375 4.640625 31.410156 5.003906 30.222656 C 5.363281 29.035156 5.78125 27.867188 6.253906 26.722656 C 6.730469 25.574219 7.257812 24.457031 7.84375 23.363281 C 8.429688 22.269531 9.066406 21.207031 9.753906 20.175781 C 10.445312 19.144531 11.183594 18.148438 11.96875 17.1875 C 12.753906 16.230469 13.585938 15.3125 14.464844 14.433594 C 15.34375 13.558594 16.261719 12.726562 17.21875 11.9375 C 18.175781 11.152344 19.171875 10.414062 20.203125 9.722656 C 21.234375 9.035156 22.296875 8.398438 23.390625 7.8125 C 24.484375 7.230469 25.605469 6.699219 26.753906 6.222656 C 27.898438 5.75 29.066406 5.332031 30.25 4.972656 C 31.4375 4.613281 32.640625 4.3125 33.855469 4.070312 C 35.074219 3.828125 36.300781 3.644531 37.535156 3.523438 C 38.769531 3.402344 40.007812 3.339844 41.246094 3.339844 C 42.488281 3.339844 43.722656 3.402344 44.957031 3.523438 C 46.191406 3.644531 47.417969 3.828125 48.636719 4.070312 C 49.851562 4.3125 51.054688 4.613281 52.242188 4.972656 C 53.429688 5.332031 54.59375 5.75 55.742188 6.222656 C 56.886719 6.699219 58.007812 7.230469 59.101562 7.8125 C 60.195312 8.398438 61.257812 9.035156 62.289062 9.722656 C 63.320312 10.414062 64.316406 11.152344 65.273438 11.9375 C 66.234375 12.726562 67.152344 13.558594 68.027344 14.433594 C 68.90625 15.3125 69.738281 16.230469 70.523438 17.1875 C 71.3125 18.148438 72.050781 19.144531 72.738281 20.175781 C 73.425781 21.207031 74.0625 22.269531 74.648438 23.363281 C 75.234375 24.457031 75.761719 25.574219 76.238281 26.722656 C 76.714844 27.867188 77.128906 29.035156 77.492188 30.222656 C 77.851562 31.410156 78.152344 32.609375 78.394531 33.828125 C 78.636719 35.042969 78.816406 36.269531 78.9375 37.503906 C 79.0625 38.738281 79.121094 39.976562 79.121094 41.214844 Z M 79.121094 41.214844 " fill-opacity="1" fill-rule="nonzero"/></g><path fill="#ffffff" d="M 31.851562 67.335938 L 11.199219 46.679688 L 19.429688 38.453125 L 31.851562 50.875 L 63.058594 19.664062 L 71.292969 27.894531 Z M 31.851562 67.335938 " fill-opacity="1" fill-rule="nonzero"/></svg>